<?xml version="1.0" encoding="UTF-8" standalone="no"?>
<!-- Created with Inkscape (http://www.inkscape.org/) -->

<svg
   xmlns:dc="http://purl.org/dc/elements/1.1/"
   xmlns:cc="http://creativecommons.org/ns#"
   xmlns:rdf="http://www.w3.org/1999/02/22-rdf-syntax-ns#"
   xmlns:svg="http://www.w3.org/2000/svg"
   xmlns="http://www.w3.org/2000/svg"
   xmlns:sodipodi="http://sodipodi.sourceforge.net/DTD/sodipodi-0.dtd"
   xmlns:inkscape="http://www.inkscape.org/namespaces/inkscape"
   width="56.725376mm"
   height="45.917709mm"
   viewBox="0 0 56.725376 45.917709"
   version="1.1"
   id="svg8"
   inkscape:version="0.92.5 (2060ec1f9f, 2020-04-08)"
   sodipodi:docname="logo.svg">
  <defs
     id="defs2">
    <marker
       inkscape:stockid="Arrow1Mend"
       orient="auto"
       refY="0.0"
       refX="0.0"
       id="Arrow1Mend"
       style="overflow:visible;"
       inkscape:isstock="true">
      <path
         id="path977"
         d="M 0.0,0.0 L 5.0,-5.0 L -12.5,0.0 L 5.0,5.0 L 0.0,0.0 z "
         style="fill-rule:evenodd;stroke:#1a1a1a;stroke-width:1pt;stroke-opacity:1;fill:#1a1a1a;fill-opacity:1"
         transform="scale(0.4) rotate(180) translate(10,0)" />
    </marker>
    <marker
       inkscape:stockid="DotM"
       orient="auto"
       refY="0.0"
       refX="0.0"
       id="DotM"
       style="overflow:visible"
       inkscape:isstock="true">
      <path
         id="path992"
         d="M -2.5,-1.0 C -2.5,1.7600000 -4.7400000,4.0 -7.5,4.0 C -10.260000,4.0 -12.5,1.7600000 -12.5,-1.0 C -12.5,-3.7600000 -10.260000,-6.0 -7.5,-6.0 C -4.7400000,-6.0 -2.5,-3.7600000 -2.5,-1.0 z "
         style="fill-rule:evenodd;stroke:#264653;stroke-width:1pt;stroke-opacity:1;fill:#264653;fill-opacity:1"
         transform="scale(0.4) translate(7.4, 1)" />
    </marker>
    <marker
       inkscape:isstock="true"
       style="overflow:visible"
       id="marker5401"
       refX="0"
       refY="0"
       orient="auto"
       inkscape:stockid="Arrow2Mend">
      <path
         transform="scale(-0.6)"
         d="M 8.7185878,4.0337352 -2.2072895,0.01601326 8.7185884,-4.0017078 c -1.7454984,2.3720609 -1.7354408,5.6174519 -6e-7,8.035443 z"
         style="fill:#264653;fill-opacity:1;fill-rule:evenodd;stroke:#264653;stroke-width:0.625;stroke-linejoin:round;stroke-opacity:1"
         id="path5399"
         inkscape:connector-curvature="0" />
    </marker>
    <marker
       inkscape:isstock="true"
       style="overflow:visible"
       id="marker4973"
       refX="0"
       refY="0"
       orient="auto"
       inkscape:stockid="Arrow2Lend">
      <path
         transform="matrix(-1.1,0,0,-1.1,-1.1,0)"
         d="M 8.7185878,4.0337352 -2.2072895,0.01601326 8.7185884,-4.0017078 c -1.7454984,2.3720609 -1.7354408,5.6174519 -6e-7,8.035443 z"
         style="fill:#000000;fill-opacity:1;fill-rule:evenodd;stroke:#000000;stroke-width:0.625;stroke-linejoin:round;stroke-opacity:1"
         id="path4971"
         inkscape:connector-curvature="0" />
    </marker>
    <marker
       inkscape:stockid="Arrow1Lend"
       orient="auto"
       refY="0"
       refX="0"
       id="Arrow1Lend"
       style="overflow:visible"
       inkscape:isstock="true">
      <path
         id="path4532"
         d="M 0,0 5,-5 -12.5,0 5,5 Z"
         style="fill:#000000;fill-opacity:1;fill-rule:evenodd;stroke:#000000;stroke-width:1.00000003pt;stroke-opacity:1"
         transform="matrix(-0.8,0,0,-0.8,-10,0)"
         inkscape:connector-curvature="0" />
    </marker>
    <style
       id="style1344">.cls-1{fill:#1a1a1a}.cls-2{fill:#4d64ae}.cls-3{fill:#ca3c32}.cls-4{fill:#9259a3}.cls-5{fill:#399746}</style>
    <clipPath
       clipPathUnits="userSpaceOnUse"
       id="clipPath2138">
      <rect
         style="fill:none;fill-opacity:0.94509804;fill-rule:nonzero;stroke:#264653;stroke-width:0.66145831;stroke-linecap:butt;stroke-linejoin:miter;stroke-miterlimit:4;stroke-dasharray:none;stroke-dashoffset:0;stroke-opacity:0.94509804;paint-order:markers stroke fill"
         id="rect2140"
         width="56.885414"
         height="45.772915"
         x="-505.02551"
         y="-15.879046" />
    </clipPath>
    <clipPath
       clipPathUnits="userSpaceOnUse"
       id="clipPath940">
      <rect
         style="fill:none;fill-opacity:1;fill-rule:nonzero;stroke:#fefefe;stroke-width:1.00541663;stroke-linecap:round;stroke-linejoin:miter;stroke-miterlimit:4;stroke-dasharray:none;stroke-dashoffset:0;stroke-opacity:1;paint-order:markers stroke fill"
         id="rect942"
         width="55.834122"
         height="44.61631"
         x="-503.90009"
         y="-15.773171" />
    </clipPath>
  </defs>
  <sodipodi:namedview
     id="base"
     pagecolor="#ffffff"
     bordercolor="#666666"
     borderopacity="1.0"
     inkscape:pageopacity="0.0"
     inkscape:pageshadow="2"
     inkscape:zoom="1.0377838"
     inkscape:cx="193.24489"
     inkscape:cy="35.414953"
     inkscape:document-units="mm"
     inkscape:current-layer="layer1"
     showgrid="false"
     inkscape:window-width="1880"
     inkscape:window-height="1056"
     inkscape:window-x="40"
     inkscape:window-y="0"
     inkscape:window-maximized="1"
     fit-margin-top="0"
     fit-margin-left="0"
     fit-margin-right="0"
     fit-margin-bottom="0" />
  <metadata
     id="metadata5">
    <rdf:RDF>
      <cc:Work
         rdf:about="">
        <dc:format>image/svg+xml</dc:format>
        <dc:type
           rdf:resource="http://purl.org/dc/dcmitype/StillImage" />
        <dc:title />
      </cc:Work>
    </rdf:RDF>
  </metadata>
  <g
     inkscape:label="Layer 1"
     inkscape:groupmode="layer"
     id="layer1"
     transform="translate(504.66495,16.56467)">
    <g
       id="g938"
       clip-path="url(#clipPath940)">
      <path
         inkscape:connector-curvature="0"
         id="path1798"
         d="m -437.387,15.937716 a 53.218715,53.218715 0 0 1 -44.48915,60.702451 53.218715,53.218715 0 0 1 -60.70553,-44.484938 53.218715,53.218715 0 0 1 44.48074,-60.708609 53.218715,53.218715 0 0 1 60.71169,44.476532"
         style="fill:none;fill-opacity:1;fill-rule:nonzero;stroke:#4d64ae;stroke-width:0.567;stroke-linecap:butt;stroke-linejoin:miter;stroke-miterlimit:4;stroke-dasharray:none;stroke-dashoffset:0;stroke-opacity:1;paint-order:markers stroke fill" />
      <path
         inkscape:connector-curvature="0"
         id="path1796"
         d="m -444.2062,16.833984 a 46.31903,46.31903 0 0 1 -38.72123,52.832517 46.31903,46.31903 0 0 1 -52.83519,-38.717567 46.31903,46.31903 0 0 1 38.7139,-52.837877 46.31903,46.31903 0 0 1 52.84057,38.710251"
         style="fill:none;fill-opacity:1;fill-rule:nonzero;stroke:#4d64ae;stroke-width:0.567;stroke-linecap:butt;stroke-linejoin:miter;stroke-miterlimit:4;stroke-dasharray:none;stroke-dashoffset:0;stroke-opacity:1;paint-order:markers stroke fill" />
      <path
         inkscape:connector-curvature="0"
         id="path1806"
         d="m -478.00994,22.042998 a 12.116309,12.116309 0 0 1 -10.12884,13.820132 12.116309,12.116309 0 0 1 -13.82083,-10.127889 12.116309,12.116309 0 0 1 10.12693,-13.821535 12.116309,12.116309 0 0 1 13.82224,10.125976"
         style="fill:#4d64ae;fill-opacity:1;fill-rule:nonzero;stroke:#4d64ae;stroke-width:0.56703192;stroke-linecap:butt;stroke-linejoin:miter;stroke-miterlimit:4;stroke-dasharray:none;stroke-dashoffset:0;stroke-opacity:1;paint-order:markers stroke fill" />
      <path
         inkscape:connector-curvature="0"
         id="path1804"
         d="m -471.09332,20.977176 a 19.11456,19.11456 0 0 1 -15.97915,21.802493 19.11456,19.11456 0 0 1 -21.80361,-15.97765 19.11456,19.11456 0 0 1 15.97615,-21.8047046 19.11456,19.11456 0 0 1 21.8058,15.9746306"
         style="fill:none;fill-opacity:0.94509804;fill-rule:nonzero;stroke:#4d64ae;stroke-width:0.56703192;stroke-linecap:butt;stroke-linejoin:miter;stroke-miterlimit:4;stroke-dasharray:none;stroke-dashoffset:0;stroke-opacity:1;paint-order:markers stroke fill" />
      <path
         inkscape:connector-curvature="0"
         id="path1802"
         d="m -464.17671,19.911355 a 26.112811,26.112811 0 0 1 -21.82947,29.784854 26.112811,26.112811 0 0 1 -29.78636,-21.827411 26.112811,26.112811 0 0 1 21.82535,-29.7878763 26.112811,26.112811 0 0 1 29.78938,21.8232873"
         style="fill:none;fill-opacity:0.94509804;fill-rule:nonzero;stroke:#4d64ae;stroke-width:0.56703192;stroke-linecap:butt;stroke-linejoin:miter;stroke-miterlimit:4;stroke-dasharray:none;stroke-dashoffset:0;stroke-opacity:1;paint-order:markers stroke fill" />
      <path
         inkscape:connector-curvature="0"
         id="path1800"
         d="m -457.35751,18.860545 a 33.012496,33.012496 0 0 1 -27.59739,37.654788 33.012496,33.012496 0 0 1 -37.65669,-27.594781 33.012496,33.012496 0 0 1 27.59217,-37.6586092 33.012496,33.012496 0 0 1 37.66052,27.5895692"
         style="fill:none;fill-opacity:0.94509804;fill-rule:nonzero;stroke:#4d64ae;stroke-width:0.56703192;stroke-linecap:butt;stroke-linejoin:miter;stroke-miterlimit:4;stroke-dasharray:none;stroke-dashoffset:0;stroke-opacity:1;paint-order:markers stroke fill" />
      <path
         inkscape:connector-curvature="0"
         id="path904"
         d="m -450.44089,17.794724 a 40.010748,40.010748 0 0 1 -33.44771,45.63715 40.010748,40.010748 0 0 1 -45.63946,-33.444543 40.010748,40.010748 0 0 1 33.44138,-45.641782 40.010748,40.010748 0 0 1 45.6441,33.438225"
         style="fill:none;fill-opacity:0.94509804;fill-rule:nonzero;stroke:#4d64ae;stroke-width:0.56703192;stroke-linecap:butt;stroke-linejoin:miter;stroke-miterlimit:4;stroke-dasharray:none;stroke-dashoffset:0;stroke-opacity:1;paint-order:markers stroke fill" />
      <path
         inkscape:connector-curvature="0"
         id="path952"
         d="m -522.54252,15.537238 138.12251,-0.03931"
         style="fill:none;stroke:#ca3c32;stroke-width:1.17470133;stroke-linecap:butt;stroke-linejoin:miter;stroke-miterlimit:4;stroke-dasharray:none;stroke-opacity:1" />
      <path
         style="color:#000000;font-style:normal;font-variant:normal;font-weight:normal;font-stretch:normal;font-size:medium;line-height:normal;font-family:sans-serif;font-variant-ligatures:normal;font-variant-position:normal;font-variant-caps:normal;font-variant-numeric:normal;font-variant-alternates:normal;font-feature-settings:normal;text-indent:0;text-align:start;text-decoration:none;text-decoration-line:none;text-decoration-style:solid;text-decoration-color:#000000;letter-spacing:normal;word-spacing:normal;text-transform:none;writing-mode:lr-tb;direction:ltr;text-orientation:mixed;dominant-baseline:auto;baseline-shift:baseline;text-anchor:start;white-space:normal;shape-padding:0;clip-rule:nonzero;display:inline;overflow:visible;visibility:visible;opacity:1;isolation:auto;mix-blend-mode:normal;color-interpolation:sRGB;color-interpolation-filters:linearRGB;solid-color:#000000;solid-opacity:1;vector-effect:none;fill:#399746;fill-opacity:1;fill-rule:nonzero;stroke:#000000;stroke-width:0.34004515;stroke-linecap:round;stroke-linejoin:miter;stroke-miterlimit:4;stroke-dasharray:none;stroke-dashoffset:0;stroke-opacity:1;color-rendering:auto;image-rendering:auto;shape-rendering:auto;text-rendering:auto;enable-background:accumulate"
         d="m -453.2295,-6.4037341 -7.24951,3.0804512 2.36378,0.2499622 -22.4501,18.0854267 c -0.56137,0.453352 0.11848,1.295616 0.67984,0.842264 l 22.36136,-18.0141817 -0.23306,2.20135769 z"
         id="path954"
         inkscape:connector-curvature="0" />
      <path
         id="path1790"
         d="m -452.7068,15.548121 -7.5779,-2.149404 1.68388,1.677633 -21.60511,-0.0014 c -0.72157,8.39e-4 -0.72058,1.083245 8.5e-4,1.082406 l 21.4913,0.0012 -1.56257,1.568011 z"
         style="color:#000000;font-style:normal;font-variant:normal;font-weight:normal;font-stretch:normal;font-size:medium;line-height:normal;font-family:sans-serif;font-variant-ligatures:normal;font-variant-position:normal;font-variant-caps:normal;font-variant-numeric:normal;font-variant-alternates:normal;font-feature-settings:normal;text-indent:0;text-align:start;text-decoration:none;text-decoration-line:none;text-decoration-style:solid;text-decoration-color:#000000;letter-spacing:normal;word-spacing:normal;text-transform:none;writing-mode:lr-tb;direction:ltr;text-orientation:mixed;dominant-baseline:auto;baseline-shift:baseline;text-anchor:start;white-space:normal;shape-padding:0;clip-rule:nonzero;display:inline;overflow:visible;visibility:visible;opacity:1;isolation:auto;mix-blend-mode:normal;color-interpolation:sRGB;color-interpolation-filters:linearRGB;solid-color:#000000;solid-opacity:1;vector-effect:none;fill:#9259a3;fill-opacity:1;fill-rule:nonzero;stroke:#000000;stroke-width:0.34004515;stroke-linecap:round;stroke-linejoin:miter;stroke-miterlimit:4;stroke-dasharray:none;stroke-dashoffset:0;stroke-opacity:1;color-rendering:auto;image-rendering:auto;shape-rendering:auto;text-rendering:auto;enable-background:accumulate"
         inkscape:connector-curvature="0"
         sodipodi:nodetypes="cccccccc" />
      <path
         style="fill:#9259a3;fill-opacity:1;fill-rule:nonzero;stroke:#4d64ae;stroke-width:0.27731949;stroke-linecap:butt;stroke-linejoin:miter;stroke-miterlimit:4;stroke-dasharray:none;stroke-dashoffset:0;stroke-opacity:1;paint-order:markers stroke fill"
         d="m -484.12828,22.985809 a 5.9257486,5.9257486 0 0 1 -4.95373,6.759041 5.9257486,5.9257486 0 0 1 -6.75939,-4.953268 5.9257486,5.9257486 0 0 1 4.9528,-6.759727 5.9257486,5.9257486 0 0 1 6.76008,4.952332"
         id="path1900"
         inkscape:connector-curvature="0" />
    </g>
  </g>
</svg>
